<svg id="Layer_3" enable-background="new 0 0 64 64" height="512" viewBox="0 0 64 64" width="512" xmlns="http://www.w3.org/2000/svg"><g><g><path d="m36.5 2.379h2v4.243h-2z" fill="#e1656e" transform="matrix(.707 -.707 .707 .707 7.802 27.835)"/></g><g><path d="m44.379 3.5h4.243v2h-4.243z" fill="#8d353e" transform="matrix(.707 -.707 .707 .707 10.438 34.199)"/></g><g><path d="m35.379 12.5h4.243v2h-4.243z" fill="#8d353e" transform="matrix(.707 -.707 .707 .707 1.438 30.471)"/></g><g><path d="m45.5 11.379h2v4.243h-2z" fill="#e1656e" transform="matrix(.707 -.707 .707 .707 4.074 36.835)"/></g><circle cx="42" cy="9" fill="#e1656e" r="5"/><path d="m5 2h20l1 2-2 1v2l-4 2v2l-3-1 1-3-2-2-2 3 1 5-3 2-3 3v2l-4-1v2l3 3 3-1 3 2 1 3 3 1-1 3 1 3-3-1v5l-2 2 2 3h-3l-3-5v-6l-3-3 1-4-5-4v-8l2-3-2-3v-3z" fill="#acc9fb"/><path d="m38.75 20-3.75 3-4-2-5 4-2 3 1 3-3 5 3 5 5 2-2 4 2 6h2l3-4 1-3-1-3 3-4 1-4 4 2 1 4 2-5 3 4v3l3 3h3l-4 4v5l3-3 2 4h2l4-5-3-4 3-1-2-4h-4l-3-3-2-3 3-3v-5l-2-4 5 1-2-3 1-3-6 2-5-1z" fill="#acc9fb"/><g><path d="m42 15c-3.309 0-6-2.691-6-6s2.691-6 6-6 6 2.691 6 6-2.691 6-6 6zm0-10c-2.206 0-4 1.794-4 4s1.794 4 4 4 4-1.794 4-4-1.794-4-4-4z" fill="#ba4753"/></g><g><path d="m41 1h2v5h-2z" fill="#f29b99"/></g><g><path d="m41 12h2v5h-2z" fill="#f29b99"/></g><g><path d="m34 8h5v2h-5z" fill="#f29b99"/></g><g><path d="m45 8h5v2h-5z" fill="#f29b99"/></g><g><path d="m41 8h2v2h-2z" fill="#8d353e"/></g><path d="m28.698 38.698-1.269-1.269c-1.282-1.282-1.131-3.402.319-4.49l.06-.045c.751-.563 1.192-1.446 1.192-2.384v-2.184c0-1.367.93-2.559 2.257-2.89l.546-.137c.767-.192 1.578-.071 2.255.336l.67.402c1.662.997 1.944 3.291.574 4.661-.798.798-1.077 1.978-.72 3.049l.476 1.427c.52 1.561-.323 3.248-1.884 3.768l-1.427.476c-1.071.357-2.251.078-3.049-.72z" fill="#e1656e"/><path d="m29.512 37.863-.777-.777c-.785-.785-.693-2.084.195-2.75l.037-.028c.459-.345.73-.885.73-1.46v-1.338c0-.837.57-1.567 1.382-1.77l.335-.084c.469-.117.966-.043 1.381.206l.41.246c1.018.611 1.191 2.015.351 2.855-.489.489-.659 1.211-.441 1.867l.291.874c.319.956-.198 1.989-1.154 2.308l-.874.291c-.654.219-1.377.049-1.866-.44z" fill="#f29b99"/><path d="m55.856 48.144-.993.993c-.446.446-.373 1.189.152 1.539l1.043.695c.5.334 1.18.153 1.449-.385l.308-.616c.119-.237.138-.512.054-.763l-.357-1.072c-.235-.705-1.13-.917-1.656-.391z" fill="#e1656e"/><path d="m51.622 28.867-.478-1.434c-.095-.285-.255-.543-.467-.756l-.833-.833c-.518-.518-1.283-.698-1.978-.467l-.906.302c-.602.201-1.264.093-1.771-.287l-1.643-1.233c-.854-.641-2.066-.467-2.706.387-.853 1.138-.227 2.776 1.167 3.055l.439.088c.904.181 1.554.974 1.554 1.896v.482c0 1.068.865 1.933 1.933 1.933h3.266c.513 0 1.004-.204 1.367-.566l.589-.589c.518-.518.699-1.284.467-1.978z" fill="#7fa3f8"/><g><path d="m17.707 47.707-1.414-1.414 15-15c.187-.188.442-.293.707-.293h5v2h-4.586z" fill="#787faa"/></g><path d="m5.936 5.064-.872.872c-.588.588-.588 1.541 0 2.129l1.234 1.234c.426.426.557 1.064.333 1.623l-1.263 3.157c-.224.559-.093 1.198.333 1.623.672.672 1.79.561 2.317-.229l2.729-4.093c.165-.248.253-.539.253-.836v-2.614c0-.57-.322-1.091-.832-1.346l-.95-.475c-.144-.072-.276-.167-.391-.282l-.763-.763c-.588-.588-1.54-.588-2.128 0z" fill="#e1656e"/><path d="m7.343 6.654-.455.455c-.307.307-.307.804 0 1.11l.644.644c.222.222.29.555.174.847l-.659 1.647c-.117.292-.048.625.174.847.35.35.934.293 1.208-.12l1.423-2.135c.086-.129.132-.28.132-.435v-1.365c0-.297-.168-.569-.434-.702l-.495-.248c-.075-.038-.144-.087-.204-.147l-.398-.398c-.307-.306-.804-.306-1.11 0z" fill="#f29b99"/><path d="m11 35.283v-4.032c0-.165-.038-.327-.112-.475l-1.12-2.24c-.353-.706.16-1.536.949-1.536h.627c.402 0 .769.227.949.587l1.544 3.088c.106.211.138.451.091.683l-.827 4.134c-.064.321-.273.595-.566.741-.705.352-1.535-.161-1.535-.95z" fill="#7fa3f8"/><g><path d="m30 16h-23v-2h22.586l3.707-3.707 1.414 1.414-4 4c-.187.188-.442.293-.707.293z" fill="#787faa"/></g><g><path d="m3.5 48.379h2v4.243h-2z" fill="#e1656e" transform="matrix(.707 -.707 .707 .707 -34.391 17.973)"/></g><g><path d="m11.379 49.5h4.243v2h-4.243z" fill="#8d353e" transform="matrix(.707 -.707 .707 .707 -31.755 24.337)"/></g><g><path d="m2.379 58.5h4.243v2h-4.243z" fill="#8d353e" transform="matrix(.707 -.707 .707 .707 -40.755 20.609)"/></g><g><path d="m12.5 57.379h2v4.243h-2z" fill="#e1656e" transform="matrix(.707 -.707 .707 .707 -38.119 26.973)"/></g><circle cx="9" cy="55" fill="#e1656e" r="5"/><g><path d="m9 61c-3.309 0-6-2.691-6-6s2.691-6 6-6 6 2.691 6 6-2.691 6-6 6zm0-10c-2.206 0-4 1.794-4 4s1.794 4 4 4 4-1.794 4-4-1.794-4-4-4z" fill="#ba4753"/></g><g><path d="m8 47h2v5h-2z" fill="#f29b99"/></g><g><path d="m8 58h2v5h-2z" fill="#f29b99"/></g><g><path d="m1 54h5v2h-5z" fill="#f29b99"/></g><g><path d="m12 54h5v2h-5z" fill="#f29b99"/></g><g><path d="m8 54h2v2h-2z" fill="#8d353e"/></g></g></svg>